<mxfile host="app.diagrams.net" modified="2020-03-31T20:03:57.513Z" agent="5.0 (Windows NT 10.0; Win64; x64) AppleWebKit/537.36 (KHTML, like Gecko) Chrome/80.0.3987.149 Safari/537.36" etag="UQCvmCQWhFpZwsNOL_nl" version="12.9.4" type="github">
  <diagram name="Page-1" id="2c4490ee-f0b8-94ab-5012-d5dc3445f7a3">
    <mxGraphModel dx="1038" dy="531" grid="1" gridSize="10" guides="1" tooltips="1" connect="0" arrows="1" fold="1" page="1" pageScale="1.5" pageWidth="1169" pageHeight="826" background="#ffffff" math="0" shadow="0">
      <root>
        <mxCell id="0" style=";html=1;" />
        <mxCell id="1" style=";html=1;" parent="0" />
        <mxCell id="67c90442a009f359-279" value="Mar" style="strokeWidth=1;fontStyle=0;html=1;" parent="1" vertex="1">
          <mxGeometry x="397" y="20" width="120" height="20" as="geometry" />
        </mxCell>
        <mxCell id="7a8b956e7d50b54d-104" value="Apr" style="strokeWidth=1;fontStyle=0;html=1;" parent="1" vertex="1">
          <mxGeometry x="517" y="20" width="120" height="20" as="geometry" />
        </mxCell>
        <mxCell id="7a8b956e7d50b54d-109" value="May" style="strokeWidth=1;fontStyle=0;html=1;" parent="1" vertex="1">
          <mxGeometry x="637" y="20" width="120" height="20" as="geometry" />
        </mxCell>
        <mxCell id="7a8b956e7d50b54d-114" value="June" style="strokeWidth=1;fontStyle=0;html=1;" parent="1" vertex="1">
          <mxGeometry x="757" y="20" width="120" height="20" as="geometry" />
        </mxCell>
        <mxCell id="7a8b956e7d50b54d-193" value="" style="align=left;strokeColor=#CCCCCC;html=1;" parent="1" vertex="1">
          <mxGeometry x="397" y="60" width="120" height="20" as="geometry" />
        </mxCell>
        <mxCell id="7a8b956e7d50b54d-194" value="" style="align=left;strokeColor=#CCCCCC;html=1;" parent="1" vertex="1">
          <mxGeometry x="397" y="80" width="120" height="20" as="geometry" />
        </mxCell>
        <mxCell id="7a8b956e7d50b54d-195" value="" style="align=left;strokeColor=#CCCCCC;html=1;" parent="1" vertex="1">
          <mxGeometry x="397" y="100" width="120" height="20" as="geometry" />
        </mxCell>
        <mxCell id="7a8b956e7d50b54d-196" value="" style="align=left;strokeColor=#CCCCCC;html=1;" parent="1" vertex="1">
          <mxGeometry x="397" y="120" width="120" height="20" as="geometry" />
        </mxCell>
        <mxCell id="7a8b956e7d50b54d-197" value="" style="align=left;strokeColor=#CCCCCC;html=1;" parent="1" vertex="1">
          <mxGeometry x="397" y="140" width="120" height="20" as="geometry" />
        </mxCell>
        <mxCell id="7a8b956e7d50b54d-198" value="" style="align=left;strokeColor=#CCCCCC;html=1;" parent="1" vertex="1">
          <mxGeometry x="397" y="160" width="120" height="20" as="geometry" />
        </mxCell>
        <mxCell id="7a8b956e7d50b54d-199" value="" style="align=left;strokeColor=#CCCCCC;html=1;" parent="1" vertex="1">
          <mxGeometry x="397" y="180" width="120" height="20" as="geometry" />
        </mxCell>
        <mxCell id="7a8b956e7d50b54d-200" value="" style="align=left;strokeColor=#CCCCCC;html=1;" parent="1" vertex="1">
          <mxGeometry x="397" y="200" width="120" height="20" as="geometry" />
        </mxCell>
        <mxCell id="7a8b956e7d50b54d-201" value="" style="align=left;strokeColor=#CCCCCC;html=1;" parent="1" vertex="1">
          <mxGeometry x="397" y="220" width="120" height="20" as="geometry" />
        </mxCell>
        <mxCell id="7a8b956e7d50b54d-202" value="" style="align=left;strokeColor=#CCCCCC;html=1;" parent="1" vertex="1">
          <mxGeometry x="397" y="240" width="120" height="20" as="geometry" />
        </mxCell>
        <mxCell id="7a8b956e7d50b54d-203" value="" style="align=left;strokeColor=#CCCCCC;html=1;" parent="1" vertex="1">
          <mxGeometry x="397" y="260" width="120" height="20" as="geometry" />
        </mxCell>
        <mxCell id="7a8b956e7d50b54d-204" value="" style="align=left;strokeColor=#CCCCCC;html=1;" parent="1" vertex="1">
          <mxGeometry x="397" y="280" width="120" height="20" as="geometry" />
        </mxCell>
        <mxCell id="7a8b956e7d50b54d-205" value="" style="align=left;strokeColor=#CCCCCC;html=1;" parent="1" vertex="1">
          <mxGeometry x="397" y="300" width="120" height="20" as="geometry" />
        </mxCell>
        <mxCell id="7a8b956e7d50b54d-206" value="" style="align=left;strokeColor=#CCCCCC;html=1;" parent="1" vertex="1">
          <mxGeometry x="397" y="320" width="120" height="41" as="geometry" />
        </mxCell>
        <mxCell id="7a8b956e7d50b54d-207" value="" style="align=left;strokeColor=#CCCCCC;html=1;" parent="1" vertex="1">
          <mxGeometry x="397" y="361" width="120" height="20" as="geometry" />
        </mxCell>
        <mxCell id="7a8b956e7d50b54d-208" value="" style="align=left;strokeColor=#CCCCCC;html=1;" parent="1" vertex="1">
          <mxGeometry x="397" y="381" width="120" height="20" as="geometry" />
        </mxCell>
        <mxCell id="7a8b956e7d50b54d-209" value="" style="align=left;strokeColor=#CCCCCC;html=1;" parent="1" vertex="1">
          <mxGeometry x="517" y="60" width="120" height="20" as="geometry" />
        </mxCell>
        <mxCell id="7a8b956e7d50b54d-210" value="" style="align=left;strokeColor=#CCCCCC;html=1;" parent="1" vertex="1">
          <mxGeometry x="517" y="80" width="120" height="20" as="geometry" />
        </mxCell>
        <mxCell id="7a8b956e7d50b54d-211" value="" style="align=left;strokeColor=#CCCCCC;html=1;" parent="1" vertex="1">
          <mxGeometry x="517" y="100" width="120" height="20" as="geometry" />
        </mxCell>
        <mxCell id="7a8b956e7d50b54d-212" value="" style="align=left;strokeColor=#CCCCCC;html=1;" parent="1" vertex="1">
          <mxGeometry x="517" y="120" width="120" height="20" as="geometry" />
        </mxCell>
        <mxCell id="7a8b956e7d50b54d-213" value="" style="align=left;strokeColor=#CCCCCC;html=1;" parent="1" vertex="1">
          <mxGeometry x="517" y="140" width="120" height="20" as="geometry" />
        </mxCell>
        <mxCell id="7a8b956e7d50b54d-214" value="" style="align=left;strokeColor=#CCCCCC;html=1;" parent="1" vertex="1">
          <mxGeometry x="517" y="160" width="120" height="20" as="geometry" />
        </mxCell>
        <mxCell id="7a8b956e7d50b54d-215" value="" style="align=left;strokeColor=#CCCCCC;html=1;" parent="1" vertex="1">
          <mxGeometry x="517" y="180" width="120" height="20" as="geometry" />
        </mxCell>
        <mxCell id="7a8b956e7d50b54d-216" value="" style="align=left;strokeColor=#CCCCCC;html=1;" parent="1" vertex="1">
          <mxGeometry x="517" y="200" width="120" height="20" as="geometry" />
        </mxCell>
        <mxCell id="7a8b956e7d50b54d-217" value="" style="align=left;strokeColor=#CCCCCC;html=1;" parent="1" vertex="1">
          <mxGeometry x="517" y="220" width="120" height="20" as="geometry" />
        </mxCell>
        <mxCell id="7a8b956e7d50b54d-218" value="" style="align=left;strokeColor=#CCCCCC;html=1;" parent="1" vertex="1">
          <mxGeometry x="517" y="240" width="120" height="20" as="geometry" />
        </mxCell>
        <mxCell id="7a8b956e7d50b54d-219" value="" style="align=left;strokeColor=#CCCCCC;html=1;" parent="1" vertex="1">
          <mxGeometry x="517" y="260" width="120" height="20" as="geometry" />
        </mxCell>
        <mxCell id="7a8b956e7d50b54d-220" value="" style="align=left;strokeColor=#CCCCCC;html=1;" parent="1" vertex="1">
          <mxGeometry x="517" y="280" width="120" height="20" as="geometry" />
        </mxCell>
        <mxCell id="7a8b956e7d50b54d-221" value="" style="align=left;strokeColor=#CCCCCC;html=1;" parent="1" vertex="1">
          <mxGeometry x="517" y="300" width="120" height="20" as="geometry" />
        </mxCell>
        <mxCell id="7a8b956e7d50b54d-222" value="" style="align=left;strokeColor=#CCCCCC;html=1;" parent="1" vertex="1">
          <mxGeometry x="517" y="320" width="120" height="41" as="geometry" />
        </mxCell>
        <mxCell id="7a8b956e7d50b54d-223" value="" style="align=left;strokeColor=#CCCCCC;html=1;" parent="1" vertex="1">
          <mxGeometry x="517" y="361" width="120" height="20" as="geometry" />
        </mxCell>
        <mxCell id="7a8b956e7d50b54d-224" value="" style="align=left;strokeColor=#CCCCCC;html=1;" parent="1" vertex="1">
          <mxGeometry x="517" y="381" width="120" height="20" as="geometry" />
        </mxCell>
        <mxCell id="7a8b956e7d50b54d-225" value="" style="align=left;strokeColor=#CCCCCC;html=1;" parent="1" vertex="1">
          <mxGeometry x="637" y="60" width="120" height="20" as="geometry" />
        </mxCell>
        <mxCell id="7a8b956e7d50b54d-226" value="" style="align=left;strokeColor=#CCCCCC;html=1;" parent="1" vertex="1">
          <mxGeometry x="637" y="80" width="120" height="20" as="geometry" />
        </mxCell>
        <mxCell id="7a8b956e7d50b54d-227" value="" style="align=left;strokeColor=#CCCCCC;html=1;" parent="1" vertex="1">
          <mxGeometry x="637" y="100" width="120" height="20" as="geometry" />
        </mxCell>
        <mxCell id="7a8b956e7d50b54d-228" value="" style="align=left;strokeColor=#CCCCCC;html=1;" parent="1" vertex="1">
          <mxGeometry x="637" y="120" width="120" height="20" as="geometry" />
        </mxCell>
        <mxCell id="7a8b956e7d50b54d-229" value="" style="align=left;strokeColor=#CCCCCC;html=1;" parent="1" vertex="1">
          <mxGeometry x="637" y="140" width="120" height="20" as="geometry" />
        </mxCell>
        <mxCell id="7a8b956e7d50b54d-230" value="" style="align=left;strokeColor=#CCCCCC;html=1;" parent="1" vertex="1">
          <mxGeometry x="637" y="160" width="120" height="20" as="geometry" />
        </mxCell>
        <mxCell id="7a8b956e7d50b54d-231" value="" style="align=left;strokeColor=#CCCCCC;html=1;" parent="1" vertex="1">
          <mxGeometry x="637" y="180" width="120" height="20" as="geometry" />
        </mxCell>
        <mxCell id="7a8b956e7d50b54d-232" value="" style="align=left;strokeColor=#CCCCCC;html=1;" parent="1" vertex="1">
          <mxGeometry x="637" y="200" width="120" height="20" as="geometry" />
        </mxCell>
        <mxCell id="7a8b956e7d50b54d-233" value="" style="align=left;strokeColor=#CCCCCC;html=1;" parent="1" vertex="1">
          <mxGeometry x="637" y="220" width="120" height="20" as="geometry" />
        </mxCell>
        <mxCell id="7a8b956e7d50b54d-234" value="" style="align=left;strokeColor=#CCCCCC;html=1;" parent="1" vertex="1">
          <mxGeometry x="637" y="240" width="120" height="20" as="geometry" />
        </mxCell>
        <mxCell id="7a8b956e7d50b54d-235" value="" style="align=left;strokeColor=#CCCCCC;html=1;" parent="1" vertex="1">
          <mxGeometry x="637" y="260" width="120" height="20" as="geometry" />
        </mxCell>
        <mxCell id="7a8b956e7d50b54d-236" value="" style="align=left;strokeColor=#CCCCCC;html=1;" parent="1" vertex="1">
          <mxGeometry x="637" y="280" width="120" height="20" as="geometry" />
        </mxCell>
        <mxCell id="7a8b956e7d50b54d-237" value="" style="align=left;strokeColor=#CCCCCC;html=1;" parent="1" vertex="1">
          <mxGeometry x="637" y="300" width="120" height="20" as="geometry" />
        </mxCell>
        <mxCell id="7a8b956e7d50b54d-238" value="" style="align=left;strokeColor=#CCCCCC;html=1;" parent="1" vertex="1">
          <mxGeometry x="637" y="320" width="120" height="41" as="geometry" />
        </mxCell>
        <mxCell id="7a8b956e7d50b54d-239" value="" style="align=left;strokeColor=#CCCCCC;html=1;" parent="1" vertex="1">
          <mxGeometry x="637" y="361" width="120" height="20" as="geometry" />
        </mxCell>
        <mxCell id="7a8b956e7d50b54d-240" value="" style="align=left;strokeColor=#CCCCCC;html=1;" parent="1" vertex="1">
          <mxGeometry x="637" y="381" width="120" height="20" as="geometry" />
        </mxCell>
        <mxCell id="7a8b956e7d50b54d-241" value="" style="align=left;strokeColor=#CCCCCC;html=1;" parent="1" vertex="1">
          <mxGeometry x="757" y="60" width="120" height="20" as="geometry" />
        </mxCell>
        <mxCell id="7a8b956e7d50b54d-242" value="" style="align=left;strokeColor=#CCCCCC;html=1;" parent="1" vertex="1">
          <mxGeometry x="757" y="80" width="120" height="20" as="geometry" />
        </mxCell>
        <mxCell id="7a8b956e7d50b54d-243" value="" style="align=left;strokeColor=#CCCCCC;html=1;" parent="1" vertex="1">
          <mxGeometry x="757" y="100" width="120" height="20" as="geometry" />
        </mxCell>
        <mxCell id="7a8b956e7d50b54d-244" value="" style="align=left;strokeColor=#CCCCCC;html=1;" parent="1" vertex="1">
          <mxGeometry x="757" y="120" width="120" height="20" as="geometry" />
        </mxCell>
        <mxCell id="7a8b956e7d50b54d-245" value="" style="align=left;strokeColor=#CCCCCC;html=1;" parent="1" vertex="1">
          <mxGeometry x="757" y="140" width="120" height="20" as="geometry" />
        </mxCell>
        <mxCell id="7a8b956e7d50b54d-246" value="" style="align=left;strokeColor=#CCCCCC;html=1;" parent="1" vertex="1">
          <mxGeometry x="757" y="160" width="120" height="20" as="geometry" />
        </mxCell>
        <mxCell id="7a8b956e7d50b54d-247" value="" style="align=left;strokeColor=#CCCCCC;html=1;" parent="1" vertex="1">
          <mxGeometry x="757" y="180" width="120" height="20" as="geometry" />
        </mxCell>
        <mxCell id="7a8b956e7d50b54d-248" value="" style="align=left;strokeColor=#CCCCCC;html=1;" parent="1" vertex="1">
          <mxGeometry x="757" y="200" width="120" height="20" as="geometry" />
        </mxCell>
        <mxCell id="7a8b956e7d50b54d-249" value="" style="align=left;strokeColor=#CCCCCC;html=1;" parent="1" vertex="1">
          <mxGeometry x="757" y="220" width="120" height="20" as="geometry" />
        </mxCell>
        <mxCell id="7a8b956e7d50b54d-250" value="" style="align=left;strokeColor=#CCCCCC;html=1;" parent="1" vertex="1">
          <mxGeometry x="757" y="240" width="120" height="20" as="geometry" />
        </mxCell>
        <mxCell id="7a8b956e7d50b54d-251" value="" style="align=left;strokeColor=#CCCCCC;html=1;" parent="1" vertex="1">
          <mxGeometry x="757" y="260" width="120" height="20" as="geometry" />
        </mxCell>
        <mxCell id="7a8b956e7d50b54d-252" value="" style="align=left;strokeColor=#CCCCCC;html=1;" parent="1" vertex="1">
          <mxGeometry x="757" y="280" width="120" height="20" as="geometry" />
        </mxCell>
        <mxCell id="7a8b956e7d50b54d-253" value="" style="align=left;strokeColor=#CCCCCC;html=1;" parent="1" vertex="1">
          <mxGeometry x="757" y="300" width="120" height="20" as="geometry" />
        </mxCell>
        <mxCell id="7a8b956e7d50b54d-254" value="" style="align=left;strokeColor=#CCCCCC;html=1;" parent="1" vertex="1">
          <mxGeometry x="757" y="320" width="120" height="41" as="geometry" />
        </mxCell>
        <mxCell id="7a8b956e7d50b54d-255" value="" style="align=left;strokeColor=#CCCCCC;html=1;" parent="1" vertex="1">
          <mxGeometry x="757" y="361" width="120" height="20" as="geometry" />
        </mxCell>
        <mxCell id="7a8b956e7d50b54d-256" value="" style="align=left;strokeColor=#CCCCCC;html=1;" parent="1" vertex="1">
          <mxGeometry x="757" y="381" width="120" height="20" as="geometry" />
        </mxCell>
        <mxCell id="7a8b956e7d50b54d-100" value="W1" style="strokeWidth=1;fontStyle=0;html=1;" parent="1" vertex="1">
          <mxGeometry x="397" y="40" width="30" height="20" as="geometry" />
        </mxCell>
        <mxCell id="7a8b956e7d50b54d-101" value="W2" style="strokeWidth=1;fontStyle=0;html=1;imageWidth=24;" parent="1" vertex="1">
          <mxGeometry x="427" y="40" width="30" height="20" as="geometry" />
        </mxCell>
        <mxCell id="7a8b956e7d50b54d-102" value="W3" style="strokeWidth=1;fontStyle=0;html=1;" parent="1" vertex="1">
          <mxGeometry x="457" y="40" width="30" height="20" as="geometry" />
        </mxCell>
        <mxCell id="7a8b956e7d50b54d-103" value="W4" style="strokeWidth=1;fontStyle=0;html=1;" parent="1" vertex="1">
          <mxGeometry x="487" y="40" width="30" height="20" as="geometry" />
        </mxCell>
        <mxCell id="7a8b956e7d50b54d-105" value="W1" style="strokeWidth=1;fontStyle=0;html=1;" parent="1" vertex="1">
          <mxGeometry x="517" y="40" width="30" height="20" as="geometry" />
        </mxCell>
        <mxCell id="7a8b956e7d50b54d-106" value="W2" style="strokeWidth=1;fontStyle=0;html=1;" parent="1" vertex="1">
          <mxGeometry x="547" y="40" width="30" height="20" as="geometry" />
        </mxCell>
        <mxCell id="7a8b956e7d50b54d-107" value="W3" style="strokeWidth=1;fontStyle=0;html=1;" parent="1" vertex="1">
          <mxGeometry x="577" y="40" width="30" height="20" as="geometry" />
        </mxCell>
        <mxCell id="7a8b956e7d50b54d-108" value="W4" style="strokeWidth=1;fontStyle=0;html=1;" parent="1" vertex="1">
          <mxGeometry x="607" y="40" width="30" height="20" as="geometry" />
        </mxCell>
        <mxCell id="7a8b956e7d50b54d-110" value="W1" style="strokeWidth=1;fontStyle=0;html=1;" parent="1" vertex="1">
          <mxGeometry x="637" y="40" width="30" height="20" as="geometry" />
        </mxCell>
        <mxCell id="7a8b956e7d50b54d-111" value="W2" style="strokeWidth=1;fontStyle=0;html=1;" parent="1" vertex="1">
          <mxGeometry x="667" y="40" width="30" height="20" as="geometry" />
        </mxCell>
        <mxCell id="7a8b956e7d50b54d-112" value="W3" style="strokeWidth=1;fontStyle=0;html=1;" parent="1" vertex="1">
          <mxGeometry x="697" y="40" width="30" height="20" as="geometry" />
        </mxCell>
        <mxCell id="7a8b956e7d50b54d-113" value="W4" style="strokeWidth=1;fontStyle=0;html=1;" parent="1" vertex="1">
          <mxGeometry x="727" y="40" width="30" height="20" as="geometry" />
        </mxCell>
        <mxCell id="7a8b956e7d50b54d-115" value="W1" style="strokeWidth=1;fontStyle=0;html=1;" parent="1" vertex="1">
          <mxGeometry x="757" y="40" width="30" height="20" as="geometry" />
        </mxCell>
        <mxCell id="7a8b956e7d50b54d-116" value="W2" style="strokeWidth=1;fontStyle=0;html=1;" parent="1" vertex="1">
          <mxGeometry x="787" y="40" width="30" height="20" as="geometry" />
        </mxCell>
        <mxCell id="7a8b956e7d50b54d-117" value="W3" style="strokeWidth=1;fontStyle=0;html=1;" parent="1" vertex="1">
          <mxGeometry x="817" y="40" width="30" height="20" as="geometry" />
        </mxCell>
        <mxCell id="7a8b956e7d50b54d-118" value="W4" style="strokeWidth=1;fontStyle=0;html=1;" parent="1" vertex="1">
          <mxGeometry x="847" y="40" width="30" height="20" as="geometry" />
        </mxCell>
        <mxCell id="7a8b956e7d50b54d-358" value="" style="align=left;strokeColor=#6c8ebf;html=1;fillColor=#dae8fc;" parent="1" vertex="1">
          <mxGeometry x="427" y="60" width="30" height="20" as="geometry" />
        </mxCell>
        <mxCell id="7a8b956e7d50b54d-359" value="" style="align=left;strokeColor=#6c8ebf;html=1;fillColor=#dae8fc;" parent="1" vertex="1">
          <mxGeometry x="457" y="80" width="30" height="20" as="geometry" />
        </mxCell>
        <mxCell id="7a8b956e7d50b54d-360" value="" style="align=left;strokeColor=#6c8ebf;html=1;fillColor=#dae8fc;" parent="1" vertex="1">
          <mxGeometry x="457" y="100" width="30" height="20" as="geometry" />
        </mxCell>
        <mxCell id="xku63MTmwabZHnDBrseJ-1" value="" style="align=left;strokeColor=#CCCCCC;html=1;" parent="1" vertex="1">
          <mxGeometry x="77.00000000000028" y="39.99999999999977" width="319.9999999999997" height="20.000000000000014" as="geometry" />
        </mxCell>
        <mxCell id="xku63MTmwabZHnDBrseJ-2" value="Narysowanie diagramu klas" style="align=left;strokeColor=#CCCCCC;html=1;" parent="1" vertex="1">
          <mxGeometry x="77" y="60.00000000000023" width="320" height="20" as="geometry" />
        </mxCell>
        <mxCell id="xku63MTmwabZHnDBrseJ-3" value="Narysowanie diagramu aktywności" style="align=left;strokeColor=#CCCCCC;html=1;" parent="1" vertex="1">
          <mxGeometry x="76.99999999999989" y="80.00000000000023" width="320.0000000000001" height="20" as="geometry" />
        </mxCell>
        <mxCell id="xku63MTmwabZHnDBrseJ-4" value="Narysowanie diagramu sekwencji" style="align=left;strokeColor=#CCCCCC;html=1;" parent="1" vertex="1">
          <mxGeometry x="76.99999999999989" y="100.00000000000045" width="320.0000000000001" height="20" as="geometry" />
        </mxCell>
        <mxCell id="xku63MTmwabZHnDBrseJ-5" value="Narysowanie diagramu przypadków użycia" style="align=left;strokeColor=#CCCCCC;html=1;" parent="1" vertex="1">
          <mxGeometry x="77.00000000000063" y="120.00000000000068" width="319.9999999999994" height="20" as="geometry" />
        </mxCell>
        <mxCell id="xku63MTmwabZHnDBrseJ-6" value="Stworzenie wizji systemu" style="align=left;strokeColor=#CCCCCC;html=1;" parent="1" vertex="1">
          <mxGeometry x="77.00000000000063" y="140.00000000000057" width="319.9999999999994" height="20" as="geometry" />
        </mxCell>
        <mxCell id="xku63MTmwabZHnDBrseJ-7" value="Task Name" style="strokeWidth=1;fontStyle=0;html=1;" parent="1" vertex="1">
          <mxGeometry x="77" y="20" width="320" height="20" as="geometry" />
        </mxCell>
        <mxCell id="xku63MTmwabZHnDBrseJ-8" value="Stworzenie słownika terminów" style="align=left;strokeColor=#CCCCCC;html=1;" parent="1" vertex="1">
          <mxGeometry x="77.00000000000063" y="160.00000000000057" width="319.9999999999994" height="20" as="geometry" />
        </mxCell>
        <mxCell id="xku63MTmwabZHnDBrseJ-9" value="Napisanie historyjek użytkowników" style="align=left;strokeColor=#CCCCCC;html=1;" parent="1" vertex="1">
          <mxGeometry x="77.00000000000063" y="180.00000000000057" width="319.9999999999994" height="20" as="geometry" />
        </mxCell>
        <mxCell id="xku63MTmwabZHnDBrseJ-10" value="Wybranie kolorystyki" style="align=left;strokeColor=#CCCCCC;html=1;" parent="1" vertex="1">
          <mxGeometry x="77.00000000000063" y="200.00000000000057" width="319.9999999999994" height="20" as="geometry" />
        </mxCell>
        <mxCell id="xku63MTmwabZHnDBrseJ-13" value="Narysowanie mockupów interfejsów" style="align=left;strokeColor=#CCCCCC;html=1;" parent="1" vertex="1">
          <mxGeometry x="77.00000000000063" y="220.00000000000057" width="319.9999999999994" height="20" as="geometry" />
        </mxCell>
        <mxCell id="xku63MTmwabZHnDBrseJ-14" value="Narysowanie diagramu encji" style="align=left;strokeColor=#CCCCCC;html=1;" parent="1" vertex="1">
          <mxGeometry x="77.00000000000063" y="240.00000000000057" width="319.9999999999994" height="20" as="geometry" />
        </mxCell>
        <mxCell id="xku63MTmwabZHnDBrseJ-15" value="Napisanie historii&amp;nbsp;" style="align=left;strokeColor=#CCCCCC;html=1;" parent="1" vertex="1">
          <mxGeometry x="77.00000000000063" y="260.00000000000057" width="319.9999999999994" height="20" as="geometry" />
        </mxCell>
        <mxCell id="xku63MTmwabZHnDBrseJ-16" value="Zrobienie zdjęć" style="align=left;strokeColor=#CCCCCC;html=1;" parent="1" vertex="1">
          <mxGeometry x="77.00000000000063" y="280.00000000000057" width="319.9999999999994" height="20" as="geometry" />
        </mxCell>
        <mxCell id="xku63MTmwabZHnDBrseJ-17" value="Napisanie zagadek" style="align=left;strokeColor=#CCCCCC;html=1;" parent="1" vertex="1">
          <mxGeometry x="77.00000000000063" y="300.00000000000057" width="319.9999999999994" height="20" as="geometry" />
        </mxCell>
        <mxCell id="xku63MTmwabZHnDBrseJ-18" value="Rozrysowanie połączeń między zagadkami w &lt;br&gt;poszczególnych etapach gry" style="align=left;strokeColor=#CCCCCC;html=1;" parent="1" vertex="1">
          <mxGeometry x="77" y="320" width="320" height="41" as="geometry" />
        </mxCell>
        <mxCell id="xku63MTmwabZHnDBrseJ-19" value="Utworzenie bazy danych" style="align=left;strokeColor=#CCCCCC;html=1;" parent="1" vertex="1">
          <mxGeometry x="77.00000000000063" y="361.00000000000057" width="319.9999999999994" height="20" as="geometry" />
        </mxCell>
        <mxCell id="xku63MTmwabZHnDBrseJ-20" value="Wpisanie danych do bazy" style="align=left;strokeColor=#CCCCCC;html=1;" parent="1" vertex="1">
          <mxGeometry x="77.00000000000063" y="381.00000000000057" width="319.9999999999994" height="20" as="geometry" />
        </mxCell>
        <mxCell id="xku63MTmwabZHnDBrseJ-21" value="" style="align=left;strokeColor=#CCCCCC;html=1;" parent="1" vertex="1">
          <mxGeometry x="397" y="401" width="120" height="20" as="geometry" />
        </mxCell>
        <mxCell id="xku63MTmwabZHnDBrseJ-22" value="" style="align=left;strokeColor=#CCCCCC;html=1;" parent="1" vertex="1">
          <mxGeometry x="397" y="421" width="120" height="20" as="geometry" />
        </mxCell>
        <mxCell id="xku63MTmwabZHnDBrseJ-23" value="" style="align=left;strokeColor=#CCCCCC;html=1;" parent="1" vertex="1">
          <mxGeometry x="397" y="441" width="120" height="20" as="geometry" />
        </mxCell>
        <mxCell id="xku63MTmwabZHnDBrseJ-24" value="" style="align=left;strokeColor=#CCCCCC;html=1;" parent="1" vertex="1">
          <mxGeometry x="397" y="461" width="120" height="20" as="geometry" />
        </mxCell>
        <mxCell id="xku63MTmwabZHnDBrseJ-25" value="" style="align=left;strokeColor=#CCCCCC;html=1;" parent="1" vertex="1">
          <mxGeometry x="397" y="481" width="120" height="20" as="geometry" />
        </mxCell>
        <mxCell id="xku63MTmwabZHnDBrseJ-26" value="" style="align=left;strokeColor=#CCCCCC;html=1;" parent="1" vertex="1">
          <mxGeometry x="397" y="501" width="120" height="20" as="geometry" />
        </mxCell>
        <mxCell id="xku63MTmwabZHnDBrseJ-27" value="" style="align=left;strokeColor=#CCCCCC;html=1;" parent="1" vertex="1">
          <mxGeometry x="397" y="521" width="120" height="20" as="geometry" />
        </mxCell>
        <mxCell id="xku63MTmwabZHnDBrseJ-28" value="" style="align=left;strokeColor=#CCCCCC;html=1;" parent="1" vertex="1">
          <mxGeometry x="397" y="541" width="120" height="20" as="geometry" />
        </mxCell>
        <mxCell id="xku63MTmwabZHnDBrseJ-29" value="" style="align=left;strokeColor=#CCCCCC;html=1;" parent="1" vertex="1">
          <mxGeometry x="517" y="401" width="120" height="20" as="geometry" />
        </mxCell>
        <mxCell id="xku63MTmwabZHnDBrseJ-30" value="" style="align=left;strokeColor=#CCCCCC;html=1;" parent="1" vertex="1">
          <mxGeometry x="517" y="421" width="120" height="20" as="geometry" />
        </mxCell>
        <mxCell id="xku63MTmwabZHnDBrseJ-31" value="" style="align=left;strokeColor=#CCCCCC;html=1;" parent="1" vertex="1">
          <mxGeometry x="517" y="441" width="120" height="20" as="geometry" />
        </mxCell>
        <mxCell id="xku63MTmwabZHnDBrseJ-32" value="" style="align=left;strokeColor=#CCCCCC;html=1;" parent="1" vertex="1">
          <mxGeometry x="517" y="461" width="120" height="20" as="geometry" />
        </mxCell>
        <mxCell id="xku63MTmwabZHnDBrseJ-33" value="" style="align=left;strokeColor=#CCCCCC;html=1;" parent="1" vertex="1">
          <mxGeometry x="517" y="481" width="120" height="20" as="geometry" />
        </mxCell>
        <mxCell id="xku63MTmwabZHnDBrseJ-34" value="" style="align=left;strokeColor=#CCCCCC;html=1;" parent="1" vertex="1">
          <mxGeometry x="517" y="501" width="120" height="20" as="geometry" />
        </mxCell>
        <mxCell id="xku63MTmwabZHnDBrseJ-35" value="" style="align=left;strokeColor=#CCCCCC;html=1;" parent="1" vertex="1">
          <mxGeometry x="517" y="521" width="120" height="20" as="geometry" />
        </mxCell>
        <mxCell id="xku63MTmwabZHnDBrseJ-36" value="" style="align=left;strokeColor=#CCCCCC;html=1;" parent="1" vertex="1">
          <mxGeometry x="517" y="541" width="120" height="20" as="geometry" />
        </mxCell>
        <mxCell id="xku63MTmwabZHnDBrseJ-37" value="" style="align=left;strokeColor=#CCCCCC;html=1;" parent="1" vertex="1">
          <mxGeometry x="637" y="401" width="120" height="20" as="geometry" />
        </mxCell>
        <mxCell id="xku63MTmwabZHnDBrseJ-38" value="" style="align=left;strokeColor=#CCCCCC;html=1;" parent="1" vertex="1">
          <mxGeometry x="637" y="421" width="120" height="20" as="geometry" />
        </mxCell>
        <mxCell id="xku63MTmwabZHnDBrseJ-39" value="" style="align=left;strokeColor=#CCCCCC;html=1;" parent="1" vertex="1">
          <mxGeometry x="637" y="441" width="120" height="20" as="geometry" />
        </mxCell>
        <mxCell id="xku63MTmwabZHnDBrseJ-40" value="" style="align=left;strokeColor=#CCCCCC;html=1;" parent="1" vertex="1">
          <mxGeometry x="637" y="461" width="120" height="20" as="geometry" />
        </mxCell>
        <mxCell id="xku63MTmwabZHnDBrseJ-41" value="" style="align=left;strokeColor=#CCCCCC;html=1;" parent="1" vertex="1">
          <mxGeometry x="637" y="481" width="120" height="20" as="geometry" />
        </mxCell>
        <mxCell id="xku63MTmwabZHnDBrseJ-42" value="" style="align=left;strokeColor=#CCCCCC;html=1;" parent="1" vertex="1">
          <mxGeometry x="637" y="501" width="120" height="20" as="geometry" />
        </mxCell>
        <mxCell id="xku63MTmwabZHnDBrseJ-43" value="" style="align=left;strokeColor=#CCCCCC;html=1;" parent="1" vertex="1">
          <mxGeometry x="637" y="521" width="120" height="20" as="geometry" />
        </mxCell>
        <mxCell id="xku63MTmwabZHnDBrseJ-44" value="" style="align=left;strokeColor=#CCCCCC;html=1;" parent="1" vertex="1">
          <mxGeometry x="637" y="541" width="120" height="20" as="geometry" />
        </mxCell>
        <mxCell id="xku63MTmwabZHnDBrseJ-45" value="" style="align=left;strokeColor=#CCCCCC;html=1;" parent="1" vertex="1">
          <mxGeometry x="757" y="401" width="120" height="20" as="geometry" />
        </mxCell>
        <mxCell id="xku63MTmwabZHnDBrseJ-46" value="" style="align=left;strokeColor=#CCCCCC;html=1;" parent="1" vertex="1">
          <mxGeometry x="757" y="421" width="120" height="20" as="geometry" />
        </mxCell>
        <mxCell id="xku63MTmwabZHnDBrseJ-47" value="" style="align=left;strokeColor=#CCCCCC;html=1;" parent="1" vertex="1">
          <mxGeometry x="757" y="441" width="120" height="20" as="geometry" />
        </mxCell>
        <mxCell id="xku63MTmwabZHnDBrseJ-48" value="" style="align=left;strokeColor=#CCCCCC;html=1;" parent="1" vertex="1">
          <mxGeometry x="757" y="461" width="120" height="20" as="geometry" />
        </mxCell>
        <mxCell id="xku63MTmwabZHnDBrseJ-49" value="" style="align=left;strokeColor=#CCCCCC;html=1;" parent="1" vertex="1">
          <mxGeometry x="757" y="481" width="120" height="20" as="geometry" />
        </mxCell>
        <mxCell id="xku63MTmwabZHnDBrseJ-50" value="" style="align=left;strokeColor=#CCCCCC;html=1;" parent="1" vertex="1">
          <mxGeometry x="757" y="501" width="120" height="20" as="geometry" />
        </mxCell>
        <mxCell id="xku63MTmwabZHnDBrseJ-51" value="" style="align=left;strokeColor=#CCCCCC;html=1;" parent="1" vertex="1">
          <mxGeometry x="757" y="521" width="120" height="20" as="geometry" />
        </mxCell>
        <mxCell id="xku63MTmwabZHnDBrseJ-52" value="" style="align=left;strokeColor=#CCCCCC;html=1;" parent="1" vertex="1">
          <mxGeometry x="757" y="541" width="120" height="20" as="geometry" />
        </mxCell>
        <mxCell id="xku63MTmwabZHnDBrseJ-55" value="Połączenie z bazą danych" style="align=left;strokeColor=#CCCCCC;html=1;" parent="1" vertex="1">
          <mxGeometry x="77.00000000000063" y="401.00000000000057" width="319.9999999999994" height="20" as="geometry" />
        </mxCell>
        <mxCell id="xku63MTmwabZHnDBrseJ-56" value="Stworzenie grafik" style="align=left;strokeColor=#CCCCCC;html=1;" parent="1" vertex="1">
          <mxGeometry x="77.00000000000063" y="421.00000000000057" width="319.9999999999994" height="20" as="geometry" />
        </mxCell>
        <mxCell id="xku63MTmwabZHnDBrseJ-57" value="Napisanie layoutów" style="align=left;strokeColor=#CCCCCC;html=1;" parent="1" vertex="1">
          <mxGeometry x="77.00000000000063" y="441.00000000000057" width="319.9999999999994" height="20" as="geometry" />
        </mxCell>
        <mxCell id="xku63MTmwabZHnDBrseJ-58" value="Nawigacja pomiędzy layoutami" style="align=left;strokeColor=#CCCCCC;html=1;" parent="1" vertex="1">
          <mxGeometry x="77.00000000000063" y="461.00000000000057" width="319.9999999999994" height="20" as="geometry" />
        </mxCell>
        <mxCell id="xku63MTmwabZHnDBrseJ-59" value="Napisanie klas i metod" style="align=left;strokeColor=#CCCCCC;html=1;" parent="1" vertex="1">
          <mxGeometry x="77.00000000000063" y="481.00000000000057" width="319.9999999999994" height="20" as="geometry" />
        </mxCell>
        <mxCell id="xku63MTmwabZHnDBrseJ-60" value="Implementacja logowania" style="align=left;strokeColor=#CCCCCC;html=1;" parent="1" vertex="1">
          <mxGeometry x="77.00000000000063" y="501.00000000000057" width="319.9999999999994" height="20" as="geometry" />
        </mxCell>
        <mxCell id="xku63MTmwabZHnDBrseJ-61" value="Połączenie z mapami" style="align=left;strokeColor=#CCCCCC;html=1;" parent="1" vertex="1">
          <mxGeometry x="77.00000000000063" y="521.0000000000006" width="319.9999999999994" height="20" as="geometry" />
        </mxCell>
        <mxCell id="xku63MTmwabZHnDBrseJ-62" value="Obsługa poruszania się po mapach" style="align=left;strokeColor=#CCCCCC;html=1;" parent="1" vertex="1">
          <mxGeometry x="77.00000000000063" y="541.0000000000006" width="319.9999999999994" height="20" as="geometry" />
        </mxCell>
        <mxCell id="xku63MTmwabZHnDBrseJ-153" value="" style="align=left;strokeColor=#CCCCCC;html=1;" parent="1" vertex="1">
          <mxGeometry x="397" y="561" width="120" height="20" as="geometry" />
        </mxCell>
        <mxCell id="xku63MTmwabZHnDBrseJ-154" value="" style="align=left;strokeColor=#CCCCCC;html=1;" parent="1" vertex="1">
          <mxGeometry x="397" y="581" width="120" height="20" as="geometry" />
        </mxCell>
        <mxCell id="xku63MTmwabZHnDBrseJ-155" value="" style="align=left;strokeColor=#CCCCCC;html=1;" parent="1" vertex="1">
          <mxGeometry x="517" y="561" width="120" height="20" as="geometry" />
        </mxCell>
        <mxCell id="xku63MTmwabZHnDBrseJ-156" value="" style="align=left;strokeColor=#CCCCCC;html=1;" parent="1" vertex="1">
          <mxGeometry x="517" y="581" width="120" height="20" as="geometry" />
        </mxCell>
        <mxCell id="xku63MTmwabZHnDBrseJ-157" value="" style="align=left;strokeColor=#CCCCCC;html=1;" parent="1" vertex="1">
          <mxGeometry x="637" y="561" width="120" height="20" as="geometry" />
        </mxCell>
        <mxCell id="xku63MTmwabZHnDBrseJ-158" value="" style="align=left;strokeColor=#CCCCCC;html=1;" parent="1" vertex="1">
          <mxGeometry x="637" y="581" width="120" height="20" as="geometry" />
        </mxCell>
        <mxCell id="xku63MTmwabZHnDBrseJ-159" value="" style="align=left;strokeColor=#CCCCCC;html=1;" parent="1" vertex="1">
          <mxGeometry x="757" y="561" width="120" height="20" as="geometry" />
        </mxCell>
        <mxCell id="xku63MTmwabZHnDBrseJ-160" value="" style="align=left;strokeColor=#CCCCCC;html=1;" parent="1" vertex="1">
          <mxGeometry x="757" y="581" width="120" height="20" as="geometry" />
        </mxCell>
        <mxCell id="xku63MTmwabZHnDBrseJ-161" value="Obsługa robienia zdjęć" style="align=left;strokeColor=#CCCCCC;html=1;" parent="1" vertex="1">
          <mxGeometry x="77.00000000000063" y="561.0000000000006" width="319.9999999999994" height="20" as="geometry" />
        </mxCell>
        <mxCell id="xku63MTmwabZHnDBrseJ-162" value="Porównywanie zdjęć przy pomocy machine learning" style="align=left;strokeColor=#CCCCCC;html=1;" parent="1" vertex="1">
          <mxGeometry x="77.00000000000063" y="581.0000000000006" width="319.9999999999994" height="20" as="geometry" />
        </mxCell>
        <mxCell id="xku63MTmwabZHnDBrseJ-163" value="" style="align=left;strokeColor=#CCCCCC;html=1;" parent="1" vertex="1">
          <mxGeometry x="397" y="601" width="120" height="20" as="geometry" />
        </mxCell>
        <mxCell id="xku63MTmwabZHnDBrseJ-164" value="" style="align=left;strokeColor=#CCCCCC;html=1;" parent="1" vertex="1">
          <mxGeometry x="397" y="621" width="120" height="20" as="geometry" />
        </mxCell>
        <mxCell id="xku63MTmwabZHnDBrseJ-165" value="" style="align=left;strokeColor=#CCCCCC;html=1;" parent="1" vertex="1">
          <mxGeometry x="397" y="641" width="120" height="20" as="geometry" />
        </mxCell>
        <mxCell id="xku63MTmwabZHnDBrseJ-166" value="" style="align=left;strokeColor=#CCCCCC;html=1;" parent="1" vertex="1">
          <mxGeometry x="397" y="661" width="120" height="20" as="geometry" />
        </mxCell>
        <mxCell id="xku63MTmwabZHnDBrseJ-167" value="" style="align=left;strokeColor=#CCCCCC;html=1;" parent="1" vertex="1">
          <mxGeometry x="397" y="681" width="120" height="20" as="geometry" />
        </mxCell>
        <mxCell id="xku63MTmwabZHnDBrseJ-171" value="" style="align=left;strokeColor=#CCCCCC;html=1;" parent="1" vertex="1">
          <mxGeometry x="517" y="601" width="120" height="20" as="geometry" />
        </mxCell>
        <mxCell id="xku63MTmwabZHnDBrseJ-172" value="" style="align=left;strokeColor=#CCCCCC;html=1;" parent="1" vertex="1">
          <mxGeometry x="517" y="621" width="120" height="20" as="geometry" />
        </mxCell>
        <mxCell id="xku63MTmwabZHnDBrseJ-173" value="" style="align=left;strokeColor=#CCCCCC;html=1;" parent="1" vertex="1">
          <mxGeometry x="517" y="641" width="120" height="20" as="geometry" />
        </mxCell>
        <mxCell id="xku63MTmwabZHnDBrseJ-174" value="" style="align=left;strokeColor=#CCCCCC;html=1;" parent="1" vertex="1">
          <mxGeometry x="517" y="661" width="120" height="20" as="geometry" />
        </mxCell>
        <mxCell id="xku63MTmwabZHnDBrseJ-175" value="" style="align=left;strokeColor=#CCCCCC;html=1;" parent="1" vertex="1">
          <mxGeometry x="517" y="681" width="120" height="20" as="geometry" />
        </mxCell>
        <mxCell id="xku63MTmwabZHnDBrseJ-179" value="" style="align=left;strokeColor=#CCCCCC;html=1;" parent="1" vertex="1">
          <mxGeometry x="637" y="601" width="120" height="20" as="geometry" />
        </mxCell>
        <mxCell id="xku63MTmwabZHnDBrseJ-180" value="" style="align=left;strokeColor=#CCCCCC;html=1;" parent="1" vertex="1">
          <mxGeometry x="637" y="621" width="120" height="20" as="geometry" />
        </mxCell>
        <mxCell id="xku63MTmwabZHnDBrseJ-181" value="" style="align=left;strokeColor=#CCCCCC;html=1;" parent="1" vertex="1">
          <mxGeometry x="637" y="641" width="120" height="20" as="geometry" />
        </mxCell>
        <mxCell id="xku63MTmwabZHnDBrseJ-182" value="" style="align=left;strokeColor=#CCCCCC;html=1;" parent="1" vertex="1">
          <mxGeometry x="637" y="661" width="120" height="20" as="geometry" />
        </mxCell>
        <mxCell id="xku63MTmwabZHnDBrseJ-183" value="" style="align=left;strokeColor=#CCCCCC;html=1;" parent="1" vertex="1">
          <mxGeometry x="637" y="681" width="120" height="20" as="geometry" />
        </mxCell>
        <mxCell id="xku63MTmwabZHnDBrseJ-187" value="" style="align=left;strokeColor=#CCCCCC;html=1;" parent="1" vertex="1">
          <mxGeometry x="757" y="601" width="120" height="20" as="geometry" />
        </mxCell>
        <mxCell id="xku63MTmwabZHnDBrseJ-188" value="" style="align=left;strokeColor=#CCCCCC;html=1;" parent="1" vertex="1">
          <mxGeometry x="757" y="621" width="120" height="20" as="geometry" />
        </mxCell>
        <mxCell id="xku63MTmwabZHnDBrseJ-189" value="" style="align=left;strokeColor=#CCCCCC;html=1;" parent="1" vertex="1">
          <mxGeometry x="757" y="641" width="120" height="20" as="geometry" />
        </mxCell>
        <mxCell id="xku63MTmwabZHnDBrseJ-190" value="" style="align=left;strokeColor=#CCCCCC;html=1;" parent="1" vertex="1">
          <mxGeometry x="757" y="661" width="120" height="20" as="geometry" />
        </mxCell>
        <mxCell id="xku63MTmwabZHnDBrseJ-191" value="" style="align=left;strokeColor=#CCCCCC;html=1;" parent="1" vertex="1">
          <mxGeometry x="757" y="681" width="120" height="20" as="geometry" />
        </mxCell>
        <mxCell id="xku63MTmwabZHnDBrseJ-197" value="Stworzenie fabuły" style="align=left;strokeColor=#CCCCCC;html=1;" parent="1" vertex="1">
          <mxGeometry x="77.00000000000063" y="601.0000000000006" width="319.9999999999994" height="20" as="geometry" />
        </mxCell>
        <mxCell id="xku63MTmwabZHnDBrseJ-198" value="Przygotowanie przypadków testowych" style="align=left;strokeColor=#CCCCCC;html=1;" parent="1" vertex="1">
          <mxGeometry x="77.00000000000063" y="621.0000000000005" width="319.9999999999994" height="20" as="geometry" />
        </mxCell>
        <mxCell id="xku63MTmwabZHnDBrseJ-199" value="Przeprowadzenie testów" style="align=left;strokeColor=#CCCCCC;html=1;" parent="1" vertex="1">
          <mxGeometry x="77.00000000000063" y="641.0000000000005" width="319.9999999999994" height="20" as="geometry" />
        </mxCell>
        <mxCell id="xku63MTmwabZHnDBrseJ-200" value="Recenzja wyników testów" style="align=left;strokeColor=#CCCCCC;html=1;" parent="1" vertex="1">
          <mxGeometry x="77.00000000000063" y="661.0000000000005" width="319.9999999999994" height="20" as="geometry" />
        </mxCell>
        <mxCell id="xku63MTmwabZHnDBrseJ-201" value="" style="align=left;strokeColor=#CCCCCC;html=1;" parent="1" vertex="1">
          <mxGeometry x="77.00000000000063" y="681.0000000000005" width="319.9999999999994" height="20" as="geometry" />
        </mxCell>
        <mxCell id="xku63MTmwabZHnDBrseJ-263" value="" style="align=left;strokeColor=#2D7600;html=1;fillColor=#60a917;fontColor=#ffffff;" parent="1" vertex="1">
          <mxGeometry x="427" y="220" width="30" height="20" as="geometry" />
        </mxCell>
        <mxCell id="xku63MTmwabZHnDBrseJ-264" value="" style="align=left;strokeColor=#2D7600;html=1;fillColor=#60a917;fontColor=#ffffff;" parent="1" vertex="1">
          <mxGeometry x="397" y="120" width="60" height="20" as="geometry" />
        </mxCell>
        <mxCell id="xku63MTmwabZHnDBrseJ-265" value="" style="align=left;strokeColor=#2D7600;html=1;fillColor=#60a917;fontColor=#ffffff;" parent="1" vertex="1">
          <mxGeometry x="397" y="180" width="60" height="20" as="geometry" />
        </mxCell>
        <mxCell id="xku63MTmwabZHnDBrseJ-269" value="" style="align=left;strokeColor=#2D7600;html=1;fillColor=#60a917;fontColor=#ffffff;" parent="1" vertex="1">
          <mxGeometry x="397" y="200" width="30" height="20" as="geometry" />
        </mxCell>
        <mxCell id="xku63MTmwabZHnDBrseJ-270" value="" style="align=left;strokeColor=#2D7600;html=1;fillColor=#60a917;fontColor=#ffffff;" parent="1" vertex="1">
          <mxGeometry x="397" y="140" width="60" height="20" as="geometry" />
        </mxCell>
        <mxCell id="xku63MTmwabZHnDBrseJ-271" value="" style="align=left;strokeColor=#2D7600;html=1;fillColor=#60a917;fontColor=#ffffff;" parent="1" vertex="1">
          <mxGeometry x="397" y="160" width="60" height="20" as="geometry" />
        </mxCell>
        <mxCell id="xku63MTmwabZHnDBrseJ-272" value="" style="align=left;strokeColor=#6c8ebf;html=1;fillColor=#dae8fc;" parent="1" vertex="1">
          <mxGeometry x="427" y="240" width="60" height="20" as="geometry" />
        </mxCell>
        <mxCell id="xku63MTmwabZHnDBrseJ-273" value="" style="align=left;strokeColor=#6c8ebf;html=1;fillColor=#dae8fc;" parent="1" vertex="1">
          <mxGeometry x="457" y="300" width="120" height="20" as="geometry" />
        </mxCell>
        <mxCell id="xku63MTmwabZHnDBrseJ-274" value="" style="align=left;strokeColor=#6c8ebf;html=1;fillColor=#dae8fc;" parent="1" vertex="1">
          <mxGeometry x="457" y="280" width="120" height="20" as="geometry" />
        </mxCell>
        <mxCell id="xku63MTmwabZHnDBrseJ-275" value="" style="align=left;strokeColor=#6c8ebf;html=1;fillColor=#dae8fc;" parent="1" vertex="1">
          <mxGeometry x="457" y="260" width="120" height="20" as="geometry" />
        </mxCell>
        <mxCell id="xku63MTmwabZHnDBrseJ-276" value="" style="align=left;strokeColor=#6c8ebf;html=1;fillColor=#dae8fc;" parent="1" vertex="1">
          <mxGeometry x="517" y="330" width="120" height="20" as="geometry" />
        </mxCell>
        <mxCell id="xku63MTmwabZHnDBrseJ-277" value="" style="align=left;strokeColor=#6c8ebf;html=1;fillColor=#dae8fc;" parent="1" vertex="1">
          <mxGeometry x="460" y="421" width="87" height="20" as="geometry" />
        </mxCell>
        <mxCell id="xku63MTmwabZHnDBrseJ-278" value="" style="align=left;strokeColor=#6c8ebf;html=1;fillColor=#dae8fc;" parent="1" vertex="1">
          <mxGeometry x="460" y="441" width="87" height="20" as="geometry" />
        </mxCell>
        <mxCell id="xku63MTmwabZHnDBrseJ-279" value="" style="align=left;strokeColor=#6c8ebf;html=1;fillColor=#dae8fc;" parent="1" vertex="1">
          <mxGeometry x="487" y="361" width="60" height="20" as="geometry" />
        </mxCell>
        <mxCell id="xku63MTmwabZHnDBrseJ-280" value="" style="align=left;strokeColor=#6c8ebf;html=1;fillColor=#dae8fc;" parent="1" vertex="1">
          <mxGeometry x="607" y="381" width="30" height="20" as="geometry" />
        </mxCell>
        <mxCell id="xku63MTmwabZHnDBrseJ-282" value="" style="align=left;strokeColor=#6c8ebf;html=1;fillColor=#dae8fc;" parent="1" vertex="1">
          <mxGeometry x="547" y="401" width="60" height="20" as="geometry" />
        </mxCell>
        <mxCell id="xku63MTmwabZHnDBrseJ-283" value="" style="align=left;strokeColor=#6c8ebf;html=1;fillColor=#dae8fc;" parent="1" vertex="1">
          <mxGeometry x="517" y="461" width="60" height="20" as="geometry" />
        </mxCell>
        <mxCell id="xku63MTmwabZHnDBrseJ-284" value="" style="align=left;strokeColor=#6c8ebf;html=1;fillColor=#dae8fc;" parent="1" vertex="1">
          <mxGeometry x="517" y="481" width="183" height="20" as="geometry" />
        </mxCell>
        <mxCell id="xku63MTmwabZHnDBrseJ-285" value="" style="align=left;strokeColor=#6c8ebf;html=1;fillColor=#dae8fc;" parent="1" vertex="1">
          <mxGeometry x="727" y="641" width="30" height="20" as="geometry" />
        </mxCell>
        <mxCell id="xku63MTmwabZHnDBrseJ-286" value="" style="align=left;strokeColor=#6c8ebf;html=1;fillColor=#dae8fc;" parent="1" vertex="1">
          <mxGeometry x="727" y="661" width="30" height="20" as="geometry" />
        </mxCell>
        <mxCell id="xku63MTmwabZHnDBrseJ-287" value="" style="align=left;strokeColor=#6c8ebf;html=1;fillColor=#dae8fc;" parent="1" vertex="1">
          <mxGeometry x="697" y="621" width="30" height="20" as="geometry" />
        </mxCell>
        <mxCell id="xku63MTmwabZHnDBrseJ-288" value="" style="align=left;strokeColor=#6c8ebf;html=1;fillColor=#dae8fc;" parent="1" vertex="1">
          <mxGeometry x="577" y="501" width="60" height="20" as="geometry" />
        </mxCell>
        <mxCell id="xku63MTmwabZHnDBrseJ-289" value="" style="align=left;strokeColor=#6c8ebf;html=1;fillColor=#dae8fc;" parent="1" vertex="1">
          <mxGeometry x="577" y="521" width="60" height="20" as="geometry" />
        </mxCell>
        <mxCell id="xku63MTmwabZHnDBrseJ-290" value="" style="align=left;strokeColor=#6c8ebf;html=1;fillColor=#dae8fc;" parent="1" vertex="1">
          <mxGeometry x="607" y="541" width="60" height="20" as="geometry" />
        </mxCell>
        <mxCell id="xku63MTmwabZHnDBrseJ-292" value="" style="align=left;strokeColor=#6c8ebf;html=1;fillColor=#dae8fc;" parent="1" vertex="1">
          <mxGeometry x="637" y="581" width="60" height="20" as="geometry" />
        </mxCell>
        <mxCell id="xku63MTmwabZHnDBrseJ-293" value="" style="align=left;strokeColor=#6c8ebf;html=1;fillColor=#dae8fc;" parent="1" vertex="1">
          <mxGeometry x="610" y="601" width="117" height="20" as="geometry" />
        </mxCell>
        <mxCell id="xku63MTmwabZHnDBrseJ-294" value="" style="align=left;strokeColor=#6c8ebf;html=1;fillColor=#dae8fc;" parent="1" vertex="1">
          <mxGeometry x="607" y="561" width="60" height="20" as="geometry" />
        </mxCell>
      </root>
    </mxGraphModel>
  </diagram>
</mxfile>
